<?xml version="1.0" encoding="UTF-8" standalone="no"?>
<!-- Created with Inkscape (http://www.inkscape.org/) -->

<svg
   width="1200"
   height="720"
   viewBox="0 0 1200 720"
   version="1.1"
   id="svg1"
   inkscape:version="1.4.2 (ebf0e940d0, 2025-05-08)"
   sodipodi:docname="bg.svg"
   xmlns:inkscape="http://www.inkscape.org/namespaces/inkscape"
   xmlns:sodipodi="http://sodipodi.sourceforge.net/DTD/sodipodi-0.dtd"
   xmlns:xlink="http://www.w3.org/1999/xlink"
   xmlns="http://www.w3.org/2000/svg"
   xmlns:svg="http://www.w3.org/2000/svg">
  <sodipodi:namedview
     id="namedview1"
     pagecolor="#ffffff"
     bordercolor="#000000"
     borderopacity="0.25"
     inkscape:showpageshadow="2"
     inkscape:pageopacity="0.0"
     inkscape:pagecheckerboard="0"
     inkscape:deskcolor="#d1d1d1"
     inkscape:document-units="px"
     inkscape:zoom="0.59938348"
     inkscape:cx="603.11972"
     inkscape:cy="364.54124"
     inkscape:window-width="1536"
     inkscape:window-height="902"
     inkscape:window-x="0"
     inkscape:window-y="0"
     inkscape:window-maximized="1"
     inkscape:current-layer="layer1"
     showguides="true" />
  <defs
     id="defs1">
    <linearGradient
       id="linearGradient1"
       inkscape:collect="always">
      <stop
         style="stop-color:#9af384;stop-opacity:1;"
         offset="0"
         id="stop2" />
      <stop
         style="stop-color:#7ab8ea;stop-opacity:1;"
         offset="1"
         id="stop1" />
    </linearGradient>
    <radialGradient
       inkscape:collect="always"
       xlink:href="#linearGradient1"
       id="radialGradient2"
       cx="153.31105"
       cy="111.59725"
       fx="153.31105"
       fy="111.59725"
       r="175"
       gradientTransform="matrix(6.5976699,-0.14922548,0.04722902,2.088124,-491.12842,155.27072)"
       gradientUnits="userSpaceOnUse" />
  </defs>
  <g
     inkscape:label="Layer 1"
     inkscape:groupmode="layer"
     id="layer1">
    <rect
       style="fill:url(#radialGradient2);stroke-width:43.6005;stroke-linecap:round;stroke-linejoin:round;paint-order:fill markers stroke"
       id="rect1"
       width="1200"
       height="685.08209"
       x="0"
       y="0"
       ry="0" />
    <circle
       style="fill:#cef0db;fill-opacity:0.411913;stroke-width:2.77901;stroke-linecap:round;stroke-linejoin:round;paint-order:fill markers stroke"
       id="path9"
       cx="525.81848"
       cy="252.79813"
       r="44.492428" />
    <path
       id="rect6"
       style="fill:#8ac79b;fill-opacity:0.75037885;stroke-width:43.6005;stroke-linecap:round;stroke-linejoin:round;paint-order:fill markers stroke"
       d="m 1067.8326,110.42411 c -21.1743,1.083 -14.8777,27.93153 -29.625,55.45982 -21.4506,40.04114 -171.60145,17.15958 -190.19198,44.33035 C 829.42508,237.38506 481.32617,252.7976 406.1317,300.30803 330.93722,347.81845 135.85152,223.08516 104.39063,248.82589 72.929725,274.56663 0,233.09598 0,233.09598 V 719.37054 H 822.22096 C 980.81999,715.08815 1120.0092,709.63837 1200,702.77009 V 184.63393 c -20.7095,-21.10978 -48.1646,-40.92272 -81.7098,-57.36161 -25.5338,-12.51286 -40.8329,-17.34049 -50.4576,-16.84821 z" />
    <path
       id="path4"
       style="fill:#cea061;fill-opacity:1;stroke-width:2.77901;stroke-linecap:round;stroke-linejoin:round;paint-order:fill markers stroke"
       d="m 435.87723,154.62723 c -29.34826,0.59249 -73.11511,13.23214 -122.41072,13.23214 -78.87294,0 -58.64664,20.22279 -80.89285,34.37947 -22.24622,14.15668 -48.53528,30.33432 -62.69197,46.51339 -14.15668,16.17906 -6.06659,10.11043 -18.20089,48.53571 -12.1343,38.42528 -48.54161,28.31895 -74.832588,36.40849 C 50.557234,341.78596 0,342.54241 0,342.54241 V 685.08483 H 1200 V 342.54241 c 0,0 -59.3769,-16.9419 -71.5112,-18.96429 -12.1343,-2.02238 -8.0881,1.9e-4 -46.5134,-6.06696 -38.4253,-6.06715 -20.2225,-8.0891 -40.4464,-14.15625 -20.2238,-6.06715 -24.2735,-6.06672 -58.65399,-14.15625 -34.38055,-8.08954 -34.37894,-6.06678 -52.58037,-12.13393 -18.20146,-6.06715 -46.51248,6e-5 -76.8482,-2.02232 -30.33576,-2.02239 -28.31146,-2.02232 -62.69198,-2.02232 -34.38051,0 -38.43017,4.04458 -58.65401,6.06696 -20.2238,2.02238 -18.20064,4.04464 -26.29018,4.04464 -8.08954,0 -87.66271,1.22242 -141.56249,-32.35714 -40.51368,-25.24003 -27.52344,-4.97817 -48.54244,-24.26786 -21.01899,-19.28968 -30.33438,-18.19978 -44.49106,-54.60267 -5.30876,-13.65109 -17.72811,-17.63229 -35.33705,-17.27679 z"
       sodipodi:nodetypes="ssssssccccsssssssssszss" />
    <path
       id="path5"
       style="fill:#14b480;fill-opacity:0.232128;stroke-width:2.77901;stroke-linecap:round;stroke-linejoin:round;paint-order:fill markers stroke"
       d="m 435.87723,154.62723 c -29.34826,0.59249 -73.11511,13.23214 -122.41072,13.23214 -78.87294,0 -58.64664,20.22279 -80.89285,34.37947 -22.24622,14.15668 -21.92606,7.52698 -36.08275,23.70605 0,0 -6.38705,59.20931 27.99346,53.14216 34.38052,-6.06715 4.04372,2.02263 34.37947,-8.08928 30.33574,-10.11192 48.53571,-18.2009 48.53571,-18.2009 0,0 14.41568,-2.85016 21.71735,-3.55151 5.54809,-0.53291 2.68333,0.67732 16.71363,-0.49187 24.2686,-2.02238 36.4018,-2.02231 36.4018,-2.02231 0,0 14.15571,6.06684 30.3348,10.1116 16.17905,4.04477 21.49957,4.55703 32.35714,4.04464 12.41609,-0.58594 25.13345,-2.84264 36.40179,-8.08928 13.07836,-6.0894 34.37946,-26.29018 34.37946,-26.29018 C 499.48368,213.51455 485.37113,208.30818 471.21445,171.90528 465.90569,158.2542 453.48634,154.273 435.8774,154.62849 Z"
       sodipodi:nodetypes="ssscsscascsaacsss" />
    <rect
       style="fill:#8ac79b;fill-opacity:1;stroke-width:3.74595;stroke-linecap:round;stroke-linejoin:round;paint-order:fill markers stroke"
       id="rect7"
       width="1200"
       height="343.32925"
       x="0"
       y="513.8136" />
    <path
       id="path7"
       style="fill:#8ac74a;fill-opacity:0.332998;stroke-width:2.77901;stroke-linecap:round;stroke-linejoin:round;paint-order:fill markers stroke;opacity:0.647"
       d="m 1067.8326,110.42411 c -21.1743,1.083 -14.8777,27.93153 -29.625,55.45982 -12.9614,24.19459 -72.9141,25.41585 -122.43752,28.58705 l 73.17857,54.28125 c 0,0 28.31185,-20.22315 48.53575,-22.24554 20.2238,-2.02238 60.6694,-2.02158 66.7366,-26.29018 6.0061,-24.02456 45.2058,-54.80551 52.5335,-50.93973 -11.7516,-7.81307 -24.5795,-15.20019 -38.4643,-22.00446 -25.5338,-12.51286 -40.8329,-17.34049 -50.4576,-16.84821 z" />
    <path
       id="path8"
       style="fill:#8ac74a;fill-opacity:0.332998;stroke-width:2.77901;stroke-linecap:round;stroke-linejoin:round;paint-order:fill markers stroke;opacity:0.629"
       d="m 1067.8326,110.42411 c -21.1743,1.083 -14.8777,27.93153 -29.625,55.45982 -14.9192,27.84904 -92.09658,25.25821 -143.96654,30.24107 13.70026,78.1554 88.63395,93.07366 88.63395,93.07366 48.53569,-22.24554 93.03329,36.40311 107.18969,-26.29018 l 60.6711,-12.13239 6.0187,-42.8502 L 1200,184.63393 c -11.747,-7.80897 -67.8316,-50.56055 -81.7098,-57.36159 -25.5338,-12.51286 -40.8329,-17.34049 -50.4576,-16.84821 z"
       sodipodi:nodetypes="ssccscccsss" />
    <g
       id="g12"
       style="opacity:0.252847"
       transform="scale(3.4285714)">
      <circle
         style="opacity:1;fill:#e0e3ed;fill-opacity:1;stroke-width:0.810544;stroke-linecap:round;stroke-linejoin:round;paint-order:fill markers stroke"
         id="path10"
         cx="155.04256"
         cy="64.864883"
         r="2.9876513" />
      <circle
         style="opacity:1;fill:#bacecc;fill-opacity:1;stroke-width:0.810544;stroke-linecap:round;stroke-linejoin:round;paint-order:fill markers stroke"
         id="path11"
         cx="154.03848"
         cy="64.037155"
         r="0.44316369" />
      <circle
         style="opacity:1;fill:#bacecc;fill-opacity:1;stroke-width:0.810544;stroke-linecap:round;stroke-linejoin:round;paint-order:fill markers stroke"
         id="circle11"
         cx="156.03848"
         cy="66.343124"
         r="0.44316369" />
      <circle
         style="opacity:1;fill:#bacecc;fill-opacity:1;stroke-width:0.810544;stroke-linecap:round;stroke-linejoin:round;paint-order:fill markers stroke"
         id="circle12"
         cx="155.86908"
         cy="64.245651"
         r="0.44316369" />
    </g>
    <path
       id="path16"
       style="display:inline;opacity:0.252847;fill:#8af35a;fill-opacity:0.449206;stroke-width:0.735999;stroke-linecap:round;stroke-linejoin:round;paint-order:fill markers stroke"
       d="m 327.47656,341.41227 c -22.51546,0.13163 -44.86718,23.8064 -44.86718,23.8064 -10e-6,0 -13.63211,93.50222 -100.93165,101.28386 -87.299536,7.78164 -4.71837,-9.72844 -29.99609,-101.16469 -12.1343,31.68239 -48.54301,23.3509 -74.833984,30.02089 C 50.556678,402.0287 0,402.65218 0,402.65218 v 282.4318 h 1200 v -282.4318 c 0,0 -59.3774,-13.96939 -71.5117,-15.63689 -12.1343,-1.66748 -8.0884,6.2e-4 -46.5137,-5.00187 -38.4253,-5.00248 -20.2214,-6.66962 -40.4453,-11.6721 -20.2238,-5.00249 -24.2738,-5.00213 -58.6543,-11.67211 -34.38055,-6.66998 -34.37865,-5.00287 -52.58008,-10.00536 -18.20146,-5.00248 -46.51193,7.5e-4 -76.84765,-1.66675 -30.33576,-1.6675 -28.31284,-1.66836 -62.69336,-1.66836 -34.38051,0 -38.43046,3.33599 -58.6543,5.00348 -20.2238,1.66749 -18.19952,3.33351 -26.28906,3.33351 -5.29046,0 -41.15431,0.43116 -80.41602,-7.01486 L 600,417.04585 c 0,0 -76.20256,59.18253 -95.07812,35.83761 -18.87558,-23.34493 -40.11069,90.98542 -61.34571,90.98542 -21.23503,0 -37.75195,-57.91284 -37.75195,-57.91284 0,0 -18.87533,-36.96251 -42.43555,-109.15384 -8.83508,-27.07175 -22.40283,-35.4689 -35.91211,-35.38993 z" />
    <path
       id="rect13"
       style="fill:#8ac75a;fill-opacity:1;stroke-width:3.74595;stroke-linecap:round;stroke-linejoin:round;paint-order:fill markers stroke"
       d="m 0,513.81696 v 56.12276 l 2.0223214,-1.47322 28.3124996,-14.15623 30.33482,-12.13392 72.810269,26.29015 c 30.33575,-8.08954 26.2895,-10.11158 48.53571,-10.11158 h 28.3125 c 34.38052,0 40.44538,-6.06723 74.8259,2.02231 34.38051,8.08954 32.36322,12.13389 52.58705,14.15626 6.54177,0.65417 12.65509,1.30265 17.93972,1.88839 h 26.16294 c 2.40803,-0.54168 5.21551,-1.16345 8.4777,-1.88839 36.40289,-8.08951 93.02677,-20.22322 93.02677,-20.22322 l 86.96654,12.13392 c 4.17113,0.3792 11.12215,1.01109 22.24553,2.02231 14.2177,1.2925 22.65171,4.64434 28.40623,7.95538 h 30.40851 c 26.09013,-20.10302 18.06305,-22.10739 32.18973,-20.0893 14.15667,2.02238 6.06586,4.04444 42.46875,10.11161 36.40289,6.06713 -24.26983,12.13413 40.44641,6.06696 64.71628,-6.06713 62.69818,-6.06686 78.87724,-8.08927 16.17908,-2.02238 10.11061,-10.11188 42.46875,0 27.94389,8.73247 3.09912,11.42599 24.45535,12 h 71.17635 c 3.46437,-0.76985 9.01934,-1.99834 17.62501,-3.91073 36.4029,-8.08954 34.3786,-12.13392 60.6696,-12.13392 h 32.3572 c 0,0 10.111,8.08923 28.3125,10.11161 11.1369,1.23744 20.0011,3.98338 25.2053,5.93304 h 14.471 l 16.9487,-3.91073 10.1116,-2.02231 10.8415,-4.64732 v -52.02456 z" />
    <path
       id="path15"
       style="display:inline;opacity:0.518;fill:#8af35a;fill-opacity:0.449206;stroke-width:0.810544;stroke-linecap:round;stroke-linejoin:round;paint-order:fill markers stroke"
       d="m 583.73068,290.73343 c -13.71108,2.06564 -19.25627,-3.77077 -32.32348,-1.53759 -9.52679,15.94908 -18.02333,-24.04957 -25.58884,8.09518 -7.6856,32.65497 -4.3e-4,-3.4e-4 -59.82813,18.875 -59.82769,18.87534 -18.87481,7.07843 -67.34179,-11.85743 -10.22795,4.58011 -22.16176,6.66952 -35.25977,6.88282 -27.63333,5.25166 -12.57743,2.10952 -26.7207,-1.77344 -5.61188,-0.76315 -11.34759,-1.75081 -17.17578,-2.92774 -36.15415,-4.1113 -12.88089,-1.807 -27.56446,-6.67382 -3.09646,-0.85801 -6.20389,-1.75125 -9.31835,-2.67383 -14.00054,-3.63756 -18.02536,-4.78635 -18.46485,-5.03906 -2.28527,1.39195 -6.49771,8.47525 -32.91797,33.5 -35.3133,33.44803 -23.59523,10.61726 -38.93164,8.25781 -15.33641,-2.35945 -15.33558,-3.53899 -27.13281,-5.89844 -11.79724,-2.35944 -27.88281,-8.89453 -27.88281,-8.89453 -4e-4,3e-4 -0.002,-3e-4 -0.002,0 -16.59704,12.52249 -41.215055,8.71671 -60.429684,14.62891 -26.162832,8.0501 -76.35507652,8.83821 -76.84374975,8.8457 H 0 V 685.08398 H 1200 V 342.54297 c 0,0 -59.3774,-16.94246 -71.5117,-18.96485 -12.1343,-2.02237 -8.0884,7.5e-4 -46.5137,-6.0664 -38.4253,-6.06715 -20.2214,-8.0891 -40.4453,-14.15625 -20.2238,-6.06715 -24.2738,-6.06672 -58.6543,-14.15625 -34.38055,-8.08954 -34.37865,-6.06762 -52.58008,-12.13477 -18.20146,-6.06715 -46.51193,9e-4 -76.84765,-2.02148 -30.33576,-2.02239 -28.31284,-2.02344 -62.69336,-2.02344 -34.38051,0 -38.43046,4.04598 -58.6543,6.06836 -20.2238,2.02238 -18.19952,4.04297 -26.28906,4.04297 -7.48826,0 -69.15038,34.08148 -122.07987,7.60257 z m -319.58615,1.37009 c 0.0336,-0.0204 0.0668,-0.0386 0.0996,-0.0566 -0.0721,-0.003 -0.12076,-0.001 -0.13672,0.01 v 0.002 h -0.002 v 0.002 l -0.002,0.002 v 0.002 0.002 0.002 l 0.002,0.002 c 0.004,0.009 0.0155,0.0196 0.0391,0.0332 z m 0.0996,-0.0566 c 0.58728,0.0279 2.81059,0.46384 2.9668,0.38867 h 0.002 l 0.002,-0.002 h 0.002 v -0.002 l 0.002,-0.002 v -0.002 -0.002 -0.002 -0.002 l -0.002,-0.002 v -0.002 c -0.0271,-0.0346 -0.19441,-0.10429 -0.55078,-0.2207 -0.0318,-0.0103 -0.0639,-0.0211 -0.0957,-0.0312 -1.05713,-0.33823 -1.60759,-0.51391 -2.32617,-0.11914 z"
       sodipodi:nodetypes="ccsscccccccsssccssccccsssssssssccccccccccccccccccccccccccccc" />
  </g>
</svg>
