<?xml version="1.0" encoding="UTF-8" standalone="no"?>
<!-- Created with Inkscape (http://www.inkscape.org/) -->

<svg
   width="128"
   height="128"
   viewBox="0 0 128 128"
   version="1.1"
   id="svg1"
   inkscape:version="1.4.2 (ebf0e940d0, 2025-05-08)"
   sodipodi:docname="eyeless_owl.svg"
   xml:space="preserve"
   xmlns:inkscape="http://www.inkscape.org/namespaces/inkscape"
   xmlns:sodipodi="http://sodipodi.sourceforge.net/DTD/sodipodi-0.dtd"
   xmlns="http://www.w3.org/2000/svg"
   xmlns:svg="http://www.w3.org/2000/svg"
   xmlns:rdf="http://www.w3.org/1999/02/22-rdf-syntax-ns#"
   xmlns:cc="http://creativecommons.org/ns#"><sodipodi:namedview
     id="namedview1"
     pagecolor="#ffffff"
     bordercolor="#000000"
     borderopacity="0.25"
     inkscape:showpageshadow="2"
     inkscape:pageopacity="0.0"
     inkscape:pagecheckerboard="0"
     inkscape:deskcolor="#d1d1d1"
     inkscape:document-units="px"
     inkscape:zoom="4.7950679"
     inkscape:cx="54.118108"
     inkscape:cy="78.51818"
     inkscape:window-width="1536"
     inkscape:window-height="902"
     inkscape:window-x="0"
     inkscape:window-y="0"
     inkscape:window-maximized="1"
     inkscape:current-layer="layer1" /><defs
     id="defs1"><clipPath
       clipPathUnits="userSpaceOnUse"
       id="clipPath1"><path
         style="opacity:1;fill:#f9f9f9;stroke:#1a1a1a;stroke-width:0.974628;stroke-linecap:round;stroke-linejoin:round;paint-order:fill markers stroke"
         d="m -85.529954,23.004608 2.359447,96.147462 H -1.7695853 L -3.5391705,20.0553 Z"
         id="path2" /></clipPath><clipPath
       clipPathUnits="userSpaceOnUse"
       id="clipPath9"><path
         style="opacity:1;fill:#ffffff;stroke:#000000;stroke-width:0.974628;stroke-linecap:round;stroke-linejoin:round;paint-order:fill markers stroke"
         d="m 33.673143,31.909325 c -3.605571,-2.156941 -4.986634,-6.538391 -4.143189,-13.144348 0.560128,-0.166116 1.930406,-0.190224 2.764977,1.290322 -0.112325,-2.808195 2.977661,-5.386469 4.285714,-6.645161 0,0 -0.11552,8.294925 7.462977,11.6682 7.578498,3.373275 -10.370479,6.830987 -10.370479,6.830987 z"
         id="path10"
         sodipodi:nodetypes="ccccsc" /></clipPath></defs><g
     inkscape:label="Layer 1"
     inkscape:groupmode="layer"
     id="layer1"><path
       style="opacity:1;fill:#ffffff;stroke:#000000;stroke-width:0.974628;stroke-linecap:round;stroke-linejoin:round;paint-order:fill markers stroke"
       d="m 33.673143,31.909325 c -3.605571,-2.156941 -4.986634,-6.538391 -4.143189,-13.144348 0.560128,-0.166116 1.930406,-0.190224 2.764977,1.290322 -0.112325,-2.808195 2.977661,-5.386469 4.285714,-6.645161 0,0 -0.11552,8.294925 7.462977,11.6682 7.578498,3.373275 -10.370479,6.830987 -10.370479,6.830987 z"
       id="path7"
       sodipodi:nodetypes="ccccsc" /><path
       style="opacity:1;fill:#ffffff;stroke:#000000;stroke-width:0.974628;stroke-linecap:round;stroke-linejoin:round;paint-order:fill markers stroke"
       d="m 93.510552,31.909325 c 3.605571,-2.156941 4.986634,-6.538391 4.143189,-13.144348 -0.560128,-0.166116 -1.930406,-0.190224 -2.764977,1.290322 0.112325,-2.808195 -2.977661,-5.386469 -4.285714,-6.645161 0,0 0.11552,8.294925 -7.462977,11.6682 -7.578498,3.373275 10.370479,6.830987 10.370479,6.830987 z"
       id="path11"
       sodipodi:nodetypes="ccccsc" /><ellipse
       style="fill:none;stroke:#000000;stroke-width:1.42845;stroke-linecap:round;stroke-linejoin:round;paint-order:fill markers stroke"
       id="ellipse12"
       cx="64"
       cy="86.85714"
       rx="39.984146"
       ry="27.016317" /><path
       style="opacity:1;fill:#ffffff;stroke:#000000;stroke-width:0.974628;stroke-linecap:round;stroke-linejoin:round;paint-order:fill markers stroke"
       d="m 92.803002,105.67476 c 3.605571,2.15694 9.157588,2.88881 8.314138,9.49476 -0.56013,0.16612 -2.850298,-1.74868 -4.433355,-1.70742 -1.094057,0.0285 0.03559,3.84859 -0.968059,4.34438 -0.951741,0.47014 -4.04246,-2.40102 -4.873462,-1.73759 -1.701841,1.35866 -0.763021,3.3579 -1.415996,3.98623 -1.016071,0.97772 0.584752,-4.1761 -6.993745,-7.54938 -7.578497,-3.37327 10.370479,-6.83098 10.370479,-6.83098 z"
       id="path25"
       sodipodi:nodetypes="ccsssssc" /><path
       style="opacity:1;fill:#ffffff;stroke:#000000;stroke-width:0.974628;stroke-linecap:round;stroke-linejoin:round;paint-order:fill markers stroke"
       d="m 36.646904,105.67476 c -3.605571,2.15694 -9.157588,2.88881 -8.314138,9.49476 0.56013,0.16612 2.850298,-1.74868 4.433355,-1.70742 1.094057,0.0285 -0.03559,3.84859 0.968059,4.34438 0.951741,0.47014 4.04246,-2.40102 4.873462,-1.73759 1.701841,1.35866 0.763021,3.3579 1.415996,3.98623 1.016071,0.97772 -0.584752,-4.1761 6.993745,-7.54938 7.578497,-3.37327 -10.370479,-6.83098 -10.370479,-6.83098 z"
       id="path26"
       sodipodi:nodetypes="ccsssssc" /><ellipse
       style="fill:none;stroke:#000000;stroke-width:0.974628;stroke-linecap:round;stroke-linejoin:round;paint-order:fill markers stroke"
       id="path4"
       cx="64"
       cy="86.85714"
       rx="27.281105"
       ry="18.43318" /><ellipse
       style="fill:#ffffff;stroke:#000000;stroke-width:0.974628;stroke-linecap:round;stroke-linejoin:round;paint-order:fill markers stroke"
       id="path3"
       cx="64"
       cy="50.580647"
       rx="40.847927"
       ry="27.870968" /><path
       id="ellipse13"
       style="fill:#ffffff;stroke:#000000;stroke-width:1.44799026;stroke-linecap:round;stroke-linejoin:round;paint-order:fill markers stroke"
       d="m 64,22.708984 c -22.559653,1.02e-4 -40.847758,12.478406 -40.847656,27.871094 5.64e-4,9.951966 7.778329,19.148607 20.40625,24.128906 -4.387416,3.354007 -6.818622,7.67214 -6.839844,12.148438 -2.58e-4,7.687013 0.775894,19.412228 10.673373,24.575288 3.210595,1.67481 12.917418,2.44076 16.607877,2.44075 3.253701,1e-5 12.927776,-0.8713 15.821129,-2.20491 C 90.326315,106.8265 91.281518,94.839541 91.28125,86.857422 91.260028,82.381124 88.828822,78.062991 84.441406,74.708984 97.069328,69.728686 104.84709,60.532045 104.84766,50.580078 104.84776,35.187389 86.559655,22.709085 64,22.708984 Z"
       sodipodi:nodetypes="ccccscscccc" /><path
       id="path5"
       style="fill:none;stroke:#000000;stroke-width:0.974628;stroke-linecap:round;stroke-linejoin:round;paint-order:fill markers stroke"
       d="m 52.999024,40.406052 a 11.64977,8.9953918 0 0 0 -11.648438,8.994141 11.64977,8.9953918 0 0 0 11.648438,8.996094 11.64977,8.9953918 0 0 0 11.001953,-6.091797 11.64977,8.9953918 0 0 0 10.998047,6.091797 11.64977,8.9953918 0 0 0 11.65039,-8.996094 11.64977,8.9953918 0 0 0 -11.65039,-8.994141 11.64977,8.9953918 0 0 0 -10.998047,6.091797 11.64977,8.9953918 0 0 0 -11.001953,-6.091797 z" /><path
       sodipodi:type="star"
       style="opacity:1;fill:#ffffff;stroke:#000000;stroke-width:0.974628;stroke-linecap:round;stroke-linejoin:round;paint-order:fill markers stroke"
       id="path6"
       inkscape:flatsided="false"
       sodipodi:sides="3"
       sodipodi:cx="64"
       sodipodi:cy="52.497696"
       sodipodi:r1="5.3087559"
       sodipodi:r2="3.5568664"
       sodipodi:arg1="1.5707963"
       sodipodi:arg2="2.6179939"
       inkscape:rounded="0.15"
       inkscape:randomized="2.7755576e-17"
       d="m 64,57.806452 c -0.702789,0 -2.728942,-2.92169 -3.080337,-3.530323 C 60.568269,53.667496 59.051088,50.451951 59.402482,49.843318 59.753877,49.234685 63.297211,48.94083 64,48.94083 c 0.702789,-10e-7 4.246123,0.293855 4.597517,0.902488 0.351395,0.608633 -1.165786,3.824178 -1.51718,4.432811 C 66.728942,54.884762 64.702789,57.806452 64,57.806452 Z"
       inkscape:transform-center-y="0.87594475"
       transform="translate(0,2.5898618)" /><ellipse
       style="fill:#ff9955;stroke:#000000;stroke-width:0.974628;stroke-linecap:round;stroke-linejoin:round;paint-order:fill markers stroke"
       id="ellipse9"
       cx="64"
       cy="50.580647"
       rx="40.847927"
       ry="27.870968"
       clip-path="url(#clipPath9)" /><ellipse
       style="fill:#ff9955;stroke:#000000;stroke-width:0.974628;stroke-linecap:round;stroke-linejoin:round;paint-order:fill markers stroke"
       id="ellipse11"
       cx="64"
       cy="50.580647"
       rx="40.847927"
       ry="27.870968"
       clip-path="url(#clipPath9)"
       transform="matrix(-1,0,0,1,127.18369,0)" /><path
       id="path18"
       style="opacity:1;fill:none;stroke:#000000;stroke-width:1.52893;stroke-linecap:round;stroke-linejoin:round;paint-order:fill markers stroke"
       d="m 59.33015,87.963685 c -1.431447,1.479988 -2.864956,2.459292 -4.605197,2.459292 -1.740241,0 -3.375201,-1.046454 -4.605197,-2.459293"
       sodipodi:nodetypes="cac" /><path
       id="path19"
       style="opacity:1;fill:none;stroke:#000000;stroke-width:1.52893;stroke-linecap:round;stroke-linejoin:round;paint-order:fill markers stroke"
       d="m 79.33015,77.963685 c -1.431447,1.479988 -2.864956,2.459292 -4.605197,2.459292 -1.740241,0 -3.375201,-1.046454 -4.605197,-2.459293"
       sodipodi:nodetypes="cac" /><path
       id="path20"
       style="opacity:1;fill:none;stroke:#000000;stroke-width:1.52893;stroke-linecap:round;stroke-linejoin:round;paint-order:fill markers stroke"
       d="m 79.33015,91.963685 c -1.431447,1.479988 -2.864956,2.459292 -4.605197,2.459292 -1.740241,0 -3.375201,-1.046454 -4.605197,-2.459293"
       sodipodi:nodetypes="cac" /><path
       id="path21"
       style="opacity:1;fill:none;stroke:#000000;stroke-width:1.52893;stroke-linecap:round;stroke-linejoin:round;paint-order:fill markers stroke"
       d="m 59.33015,101.96368 c -1.431447,1.47999 -2.864956,2.4593 -4.605197,2.4593 -1.740241,0 -3.375201,-1.04646 -4.605197,-2.4593"
       sodipodi:nodetypes="cac" /><path
       id="path22"
       style="opacity:1;fill:none;stroke:#000000;stroke-width:1.52893;stroke-linecap:round;stroke-linejoin:round;paint-order:fill markers stroke"
       d="m 59.33015,77.96368 c -1.431447,1.47999 -2.864956,2.4593 -4.605197,2.4593 -1.740241,0 -3.375201,-1.04646 -4.605197,-2.4593"
       sodipodi:nodetypes="cac" /><path
       id="path23"
       style="opacity:1;fill:none;stroke:#000000;stroke-width:1.52893;stroke-linecap:round;stroke-linejoin:round;paint-order:fill markers stroke"
       d="m 79.33015,101.96368 c -1.431447,1.47999 -2.864956,2.4593 -4.605197,2.4593 -1.740241,0 -3.375201,-1.04646 -4.605197,-2.4593"
       sodipodi:nodetypes="cac" /></g><metadata
     id="metadata1"><rdf:RDF><cc:Work
         rdf:about=""><cc:license
           rdf:resource="http://creativecommons.org/licenses/by-sa/4.0/" /></cc:Work><cc:License
         rdf:about="http://creativecommons.org/licenses/by-sa/4.0/"><cc:permits
           rdf:resource="http://creativecommons.org/ns#Reproduction" /><cc:permits
           rdf:resource="http://creativecommons.org/ns#Distribution" /><cc:requires
           rdf:resource="http://creativecommons.org/ns#Notice" /><cc:requires
           rdf:resource="http://creativecommons.org/ns#Attribution" /><cc:permits
           rdf:resource="http://creativecommons.org/ns#DerivativeWorks" /><cc:requires
           rdf:resource="http://creativecommons.org/ns#ShareAlike" /></cc:License></rdf:RDF></metadata></svg>
